<svg width="422" height="422" viewBox="0 0 422 422" fill="none" xmlns="http://www.w3.org/2000/svg">
  <defs>
    <filter id="shadow" x="0" y="0" width="422" height="422" filterUnits="userSpaceOnUse" color-interpolation-filters="sRGB">
      <feFlood flood-opacity="0" result="BackgroundImageFix"/>
      <feColorMatrix in="SourceAlpha" type="matrix" values="0 0 0 0 0 0 0 0 0 0 0 0 0 0 0 0 0 0 127 0" result="hardAlpha"/>
      <feOffset dy="5"/>
      <feGaussianBlur stdDeviation="2.5"/>
      <feColorMatrix type="matrix" values="0 0 0 0 0 0 0 0 0 0 0 0 0 0 0 0 0 0 0.25 0"/>
      <feBlend mode="normal" in2="BackgroundImageFix" result="effect1_dropShadow"/>
      <feBlend mode="normal" in="SourceGraphic" in2="effect1_dropShadow" result="shape"/>
    </filter>
    <clipPath id="roundedCard">
      <rect x="5" y="0" width="412" height="412" rx="93" ry="93"/>
    </clipPath>
  </defs>

  <g filter="url(#shadow)">
    <!-- Card body: warm cream (Notes paper) -->
    <rect x="5" y="0" width="412" height="412" rx="93" ry="93" fill="#FFF8E1"/>
  </g>

  <!-- Top accent band: Notes signature warm yellow -->
  <g clip-path="url(#roundedCard)">
    <rect x="5" y="0" width="412" height="118" fill="#FCD34D"/>
  </g>

  <!-- W glyph -->
  <path d="M113.729 320L61.7053 138.182H103.697L133.793 264.513H135.303L168.506 138.182H204.461L237.575 264.78H239.173L269.269 138.182H311.261L259.237 320H221.773L187.149 201.126H185.729L151.194 320H113.729Z" fill="#1D1D1F"/>

  <!-- Small S glyph -->
  <path d="M365.131 261.513L344.357 262.791C344.001 261.016 343.238 259.418 342.066 257.997C340.894 256.541 339.349 255.387 337.432 254.535C335.55 253.647 333.295 253.203 330.667 253.203C327.151 253.203 324.186 253.949 321.771 255.44C319.357 256.896 318.149 258.849 318.149 261.3C318.149 263.253 318.93 264.904 320.493 266.254C322.055 267.603 324.737 268.686 328.536 269.503L343.344 272.486C351.299 274.119 357.229 276.747 361.136 280.369C365.042 283.991 366.995 288.75 366.995 294.645C366.995 300.007 365.415 304.712 362.254 308.761C359.129 312.809 354.832 315.969 349.364 318.242C343.93 320.479 337.663 321.598 330.56 321.598C319.729 321.598 311.1 319.343 304.673 314.833C298.281 310.288 294.534 304.109 293.433 296.296L315.752 295.124C316.427 298.427 318.06 300.948 320.653 302.688C323.245 304.393 326.565 305.245 330.614 305.245C334.591 305.245 337.787 304.482 340.202 302.955C342.652 301.392 343.895 299.386 343.93 296.935C343.895 294.876 343.025 293.189 341.32 291.875C339.616 290.526 336.988 289.496 333.437 288.786L319.268 285.962C311.278 284.364 305.33 281.594 301.423 277.653C297.553 273.711 295.617 268.686 295.617 262.578C295.617 257.322 297.038 252.795 299.879 248.995C302.755 245.195 306.786 242.266 311.97 240.206C317.19 238.146 323.298 237.116 330.294 237.116C340.628 237.116 348.76 239.3 354.69 243.668C360.656 248.036 364.136 253.984 365.131 261.513Z" fill="#1D1D1F"/>
</svg>
